<?xml version="1.0" encoding="UTF-8"?>
<svg version="1.1" viewBox="0 0 2048 711" width="380" height="132" xmlns="http://www.w3.org/2000/svg">
<path transform="translate(0)" d="m0 0h2048v711h-2048z" fill="#FCFBFB"/>
<path transform="translate(346,98)" d="m0 0h444l3 6 11 36v3h-27l-6-1 13 42 3 12-152 1h-221l-340-1-3-1 6 16 12 37 72 216 1 2h1087l735 1-16-49-57-171-14-44-3-6h-264l-433-1-11-33-16-50-5-14 185-1h423l95 1 4 9 14 42 14 43 13 38 13 40 14 41 12 37 33 99 7 22v3l-4 1h-1807l-23-1-4-8-12-36-18-55-51-153-10-32-14-41-14-43-2-6z" fill="#02016E"/>
<path transform="translate(989,94)" d="m0 0h168l4 9 17 52 14 43 51 159 3 9v3h-327l-34-1-4-9-20-61-16-50-24-73-17-54-8-23v-3z" fill="#02006E"/>
<path transform="translate(1350,98)" d="m0 0h423l95 1 4 9 14 42 14 43 13 38 13 40 14 41 12 37 33 99 6 19-1 3-5-3-3-7-71-213-14-44-3-6h-264l-433-1-11-33-16-50-5-14z" fill="#02006D"/>
<path transform="translate(461,226)" d="m0 0h23l26 3 16 4 18 6 17 8 10 6 4-1 9-8 15-9 13-5 18-3 13-1h26l29 3 21 5 16 6 17 9 12 9 7 7 7 11 6 12 16 47 14 43 17 51v3h-110l-3-1-24-72-18-55-5-12-5-4-2-1h-14l-6 2-1 7 16 50 28 84v1l-5 1h-105l-3-1-5-14-24-73-14-43-6-11-5-3h-16l-5 3-1 1v7l14 43 18 55 11 33v2l-4 1h-107l-3-5-35-105-12-38-1-5v-10l3-9 4-6 8-8 13-8 11-5 21-5z" fill="#02006D"/>
<path transform="translate(159,484)" d="m0 0h1831l2 1-1 32h-1832z" fill="#02006E"/>
<path transform="translate(1262,231)" d="m0 0h165l33 3 18 3 20 5 17 6 19 9 14 9 10 9 8 9 6 12 2 6v14l-6 12-10 10-15 9-1 4 13 12 10 9 8 7 10 9 26 24 8 7 13 12-2 1h-115l-11-9-15-13-13-11-10-8-10-9-11-9-5-4-4-8-14-43v-2l25-2 10-4 4-4-1-7-5-6-8-4-11-2-33-1-9-1 7 19 21 63 14 43 6 18v4h-108l-5-3-46-138-14-43-5-14z" fill="#02006D"/>
<path transform="translate(974,125)" d="m0 0h46l29 3 25 5 18 6 14 7 13 9 12 11 9 13 8 17 27 82 13 39v4h-107l-6-16-36-108-6-9-8-4-4-1h-18l-7 3-3 1-2 5 1 8 7 22v2h31l4 8 12 37 1 6-24 1-6 1 13 37 1 7h-107l-4-9-14-42-14-43-10-31-2-9v-14l4-11 7-9 9-8 10-6 19-7 24-5z" fill="#FCFCFC"/>
<path transform="translate(1570,231)" d="m0 0h284l3 5 17 51v2h-72l-14-1 16 50 12 36 16 49 2 9h-111l-3-5-24-72-14-43-8-23h-28l-57-1-3-4-16-49-1-3z" fill="#02006D"/>
<path transform="translate(258,226)" d="m0 0h13l28 2 12 2 3 5 6 16 11 34v2h-29l-10 4-5 5v6l4 6 7 7 19 14 10 8 9 8 9 12 5 10 2 6v13l-4 11-7 9-8 7-14 8-14 6-13 4-24 4-19 2h-20l-23-2-24-4-3-3-17-53v-2l21 3h19l10-2 9-6 1-6-5-6-17-13-13-10-13-12-10-13-6-13-2-8v-7l4-13 8-11 12-9 19-10 15-5 12-3 15-2z" fill="#02006D"/>
<path transform="translate(804,141)" d="m0 0 2 3 21 64 25 75 11 35 17 52 2 3 3 1h270l59 1 4 10 9 29 2 9-5 1h-355l-8-1-4-9-20-61-19-59-30-96h-133l-174 1h-79l-315-1-14-1-1 2-1-4 343 1h373l-10-31-6-20v-3l33 1z" fill="#B3B5B6"/>
<path transform="translate(1984,465)" d="m0 0 1 2 5 2 2 1v3l-4 1h-1807l-23-1v-1l5-1-1-4 1010-1h77l735 1z" fill="#1829B4"/>
<path transform="translate(86,119)" d="m0 0h28l10 4 1 1h5l6-5h30l10 4 7 6 6 10 14 29 1 6-1 1h-28l-5-8-13-29-2-3-6-1 5 15 11 23-1 3h-29l-6-10-9-21-4-8-7-1 12 27 4 10v3h-29l-3-3-10-22-7-17 1-7 7-6z" fill="#FAF9F9"/>
<path transform="translate(1206,570)" d="m0 0h26l4 2 3 9 5 26 4 16 1 13-4 8-6 5-5 2h-14l-7-3-4-5v-7l1-1 7 1 7 2h7l3-3 1-9-9 3h-8l-9-5-7-8-5-12-1-5v-17l3-6 5-5z" fill="#030270"/>
<path transform="translate(783,546)" d="m0 0h11l3 3 4 23h3l4-2h13l5 3 7 8 6 15 2 10v12l-6 10-6 3h-28l-5-19-12-55-2-10z" fill="#030271"/>
<path transform="translate(735,569)" d="m0 0 7 1 5 5h5l4-5 9-1 7 2 7 9 4 13 8 34v3l-12 1-3-3-9-40-2-5-4 1-5 4v7l7 30v5l-10 1-3-1-4-15-6-27-2-4-7 1-2 2v8l5 24 2 7v4l-11 1-2-1-7-27-6-27-1-4 6-2 8 1 3 2 4-3z" fill="#030271"/>
<path transform="translate(1881,560)" d="m0 0h10l3 2v8l13 1 2 4v8l-4 1-7-1 8 31 4 5 7-1 2 5v6l-2 2-6 1-8-2-5-3-5-8-5-18-4-15-4-7v6h-9l-5-2h-6l-4 4v11l4 11 4 6 7 3 7-1 5-4 2 1 2 6v8l-7 3h-14l-8-3-8-8-7-14-2-13v-10l3-7 6-5 3-1h19l7 2 1-1v-10z" fill="#030271"/>
<path transform="translate(184,119)" d="m0 0h15l21 1 5 5 7 8 4 1 2-13 1-1h34l-1 5-12 36-4 14-4 1-10-8-16-13-11-9-16-13-13-10z" fill="#FAF9F9"/>
<path transform="translate(666,551)" d="m0 0h11l6 9 15 28 14 27 7 13v3h-11l-5-3-8-15-2-3h-11l-9-1-3 20-5 2-8-1 1-15 6-60z" fill="#030270"/>
<path transform="translate(1710,570)" d="m0 0h18l9 8 7 10 4 12 1 6v11l-4 8-5 4-6 2h-10l-7-3-8-7-6-9-4-13-1-10 3-10 5-7z" fill="#030270"/>
<path transform="translate(1926,570)" d="m0 0h16l7 4 5 5 5 8 4 9 2 12-1 11-5 8-4 3-4 1h-11l-8-3-7-7-6-9-4-14v-15l4-8 5-4z" fill="#030271"/>
<path transform="translate(483,570)" d="m0 0h15l6 3 6 5 7 11 4 14 1 12-4 9-5 5-7 2h-10l-7-3-7-6-7-11-3-11v-18l3-6 5-5z" fill="#030270"/>
<path transform="translate(229,570)" d="m0 0h16l7 4 7 7 6 12 3 12v12l-4 8-5 4-5 2h-11l-9-4-7-8-6-10-3-15 1-13 4-7z" fill="#030170"/>
<path transform="translate(1613,551)" d="m0 0h26l9 3 5 5 4 6 3 10v12l-4 7-5 4-5 2-7 2 1 11 3 12-1 5h-13l-2-6-8-38-7-32z" fill="#030271"/>
<path transform="translate(176,549)" d="m0 0h16l10 3 3 4 3 9v4l-9-3-11-3-9 1-5 5-1 2v18l4 12 7 11 5 4 4 2h10l13-6h2l2 7-1 7-5 4-5 1h-18l-9-3-10-8-7-10-5-12-3-16v-10l2-9 4-6 6-5z" fill="#030271"/>
<path transform="translate(597,569)" d="m0 0 10 1 5 5 4 7 5 16 5 17 7 9v5l-7 3-6-1-2-4-3-1-6 5-9 1-6-3-6-7-4-11v-7l3-6 11-5 6-2-1-7-7-2-10 6h-4l-1-3v-11l5-3z" fill="#030271"/>
<path transform="translate(1484,570)" d="m0 0h17l7 6 5 13 7 26 7 9v5l-4 2h-7l-7-4-10 5-7-1-8-6-4-9-2-11 5-8 16-6-1-7-3-1h-7l-8 5-4-1-1-4v-8l3-3z" fill="#030271"/>
<path transform="translate(1011,569)" d="m0 0 10 1 6 4 6 11 7 29 7 10 1 5-7 3-5-1-3-4-4 1-8 4-9-1-9-9-3-6-1-9 3-8 6-4 11-3 1-3-3-5-1-1h-8l-8 5h-3l-1-2v-8l3-6 5-2z" fill="#030271"/>
<path transform="translate(1386,569)" d="m0 0 10 1 8 7 7 14 3 9v4h-27l5 10 5 3 9 1 10-3 2 3v11l-4 2h-20l-6-4-6-5-7-10-3-8-2-16 2-9 5-7z" fill="#030270"/>
<path transform="translate(1264,569)" d="m0 0 9 1 6 4 6 9 5 12 1 8-2 1h-24l4 9 6 4 8 1 7-3 4 1 1 2v11l-6 2h-15l-10-5-7-6-7-14-2-9v-13l3-8 7-6z" fill="#030271"/>
<path transform="translate(877,570)" d="m0 0h14l5 3 6 7 7 16 1 8h-26l2 7 5 5 4 2h7l6-2 5 1 1 3v8l-2 2-6 1h-14l-8-4-9-8-5-9-3-9v-20l5-8z" fill="#030170"/>
<path transform="translate(364,570)" d="m0 0 11 1 2 5 7 32 4 9h4l4-5 1-6-6-27-2-8 2-1h12l3 9 9 43 1 8-5 1-8-2-6 1-4 1h-9l-6-4-6-9-4-14-5-24-2-9z" fill="#030271"/>
<path transform="translate(1804,570)" d="m0 0h15l7 5 6 10 6 18-1 1h-25l1 6 5 6 5 2 10-1 7-1 2 5v7l-3 2-6 1h-13l-9-4-9-9-6-12-2-8v-15l6-10z" fill="#030270"/>
<path transform="translate(1312,570)" d="m0 0h15l5 5 4 7 5 16 6 26 1 6-3 1h-8l-3-1-3-9-7-32-4-6-5 3-3 4v7l7 28v5h-14l-7-32-5-21v-6h11l3 2z" fill="#030270"/>
<path transform="translate(935,569)" d="m0 0 10 1 7 6 4 9 10 40v5h-13l-3-8-6-28-4-10-3-1-6 7-1 4 7 30 1 6-9 1-5-2-2-4-6-31-4-16-2-7 7-1 9 2 5-1z" fill="#030271"/>
<path transform="translate(1145,570)" d="m0 0 9 1 3 2 6-3h13l5 5 4 5 5 18 6 26 1 6-9 1-5-2-4-15-5-22-4-9-4 2-5 5 1 11 7 28-1 1h-13l-3-10-10-44v-5z" fill="#030271"/>
<path transform="translate(272,570)" d="m0 0 10 2 1 2 5-4h13l7 6 4 8 10 41 1 4-1 1-10 1-4-2-2-8-6-28-4-10-4 1-4 2-1 3v7l5 23 2 10-1 1h-12l-3-8-7-33-4-17z" fill="#030271"/>
<path transform="translate(1539,570)" d="m0 0h10l5 3 10 19 5 9 2 1 3-30 3-2h7l4 1-2 21-6 51-2 7h-10l-3-1 1-6 1-4v-12l-8-16-10-18-11-20z" fill="#030271"/>
<path transform="translate(1741,570)" d="m0 0h11l5 4 8 15 7 14 2-9 2-21 3-3h8l3 3-3 26-2 25-3 21-2 5h-12v-7l2-15-12-22-10-20-8-13z" fill="#030271"/>
<path transform="translate(336,569)" d="m0 0 12 1 3 3 2 8-1 5-10-3h-6l1 6 17 9 6 7 2 6v11l-4 6-6 3h-13l-6-2-3-3-3-9v-5l4 1 10 5h7l1-3-3-5-15-8-8-8-2-6v-9l3-5 3-3z" fill="#030271"/>
<path transform="translate(1975,570)" d="m0 0h18l3 7 2 9-7-1-6-3-5 1 2 6 17 9 6 7 2 5v11l-6 8-5 2h-11l-8-3-3-3-2-7v-5h4l9 5h8l-1-7-18-10-4-5-4-9v-9l5-6z" fill="#030271"/>
<path transform="translate(966,560)" d="m0 0h7l3 3 2 7 9 1 3 3 1 7-2 2-7 1 1 11 5 19 5 5 7 1 1 7-5 5-10-1-6-4-5-6-4-11-4-20-2-5-5-4-1-2v-8l3-3v-6z" fill="#030271"/>
<path transform="translate(439,560)" d="m0 0h8l4 3v6l2 1 9 1 3 3 1 9-11-1 6 27 4 8 4 1 4 2 3 5-1 5-1 1h-13l-6-4-4-5-4-9-6-26-7-10-1-4 3-4 1-7z" fill="#030271"/>
<path transform="translate(411,546)" d="m0 0h9l3 3 7 31 5 22 5 21 1 7h-14l-3-10-11-50-4-20v-3z" fill="#030271"/>
<path transform="translate(1036,546)" d="m0 0h11l3 4 16 72 1 8-2 1-10-1-3-2-5-26-8-36-4-19z" fill="#030271"/>
<path transform="translate(1114,551)" d="m0 0h12l2 2 14 63 2 8v6h-13l-3-8-11-51-4-19z" fill="#030271"/>
<path transform="translate(546,569)" d="m0 0 4 2 3 10 1 4-13 1-1 4 3 18 5 21-1 1h-13l-3-10-6-28-4-17v-4h17z" fill="#030271"/>
<path transform="translate(1440,569)" d="m0 0 4 1 4 13 1 2-14 1v11l6 27v6l-10 1-3-1-6-27-7-30v-2l7-1 9 1h2z" fill="#030271"/>
<path transform="translate(1686,569)" d="m0 0 6 1 4 13v1l-13 2-1 5 3 18 4 16-1 5h-12l-2-6-10-47v-6l7-1 7 1h3z" fill="#030272"/>
<path transform="translate(840,570)" d="m0 0h12l3 3 9 41 3 11v5l-2 1h-8l-4-2-3-12-10-45z" fill="#030271"/>
<path transform="translate(1345,570)" d="m0 0h12l2 2 8 39 4 14v5h-13l-5-15-6-31-3-13z" fill="#030271"/>
<path transform="translate(1450,570)" d="m0 0h9l4 2 3 10 8 37 3 11-4 1h-7l-4-2-3-12-8-38-2-8z" fill="#030372"/>
<path transform="translate(556,570)" d="m0 0h9l3 1 3 8 9 42 2 5v4l-9 1-5-2-4-15-7-34-2-9z" fill="#030272"/>
<path transform="translate(1716,582)" d="m0 0h7l5 4 6 12 1 5v11l-2 4-2 1h-6l-6-5-6-14v-14z" fill="#F7F7F7"/>
<path transform="translate(235,582)" d="m0 0h6l5 3 6 10 2 6v13l-3 5h-7l-5-4-5-10-2-7v-13z" fill="#F6F6F6"/>
<path transform="translate(490,581)" d="m0 0 7 2 6 8 4 9v15l-3 4h-7l-5-5-5-10-2-9 1-11z" fill="#F8F7F7"/>
<path transform="translate(1932,582)" d="m0 0h7l5 5 6 12v17l-3 3h-7l-6-7-5-12v-15z" fill="#F9F8F8"/>
<path transform="translate(812,583)" d="m0 0 6 1 4 5 4 10 1 5v11l-3 3h-7l-5-3-4-11-2-8v-9l3-3z" fill="#F7F7F7"/>
<path transform="translate(1213,582)" d="m0 0 7 1 5 4 4 10 1 11-2 5-5 2-6-1-5-8-3-10v-10z" fill="#F7F6F6"/>
<path transform="translate(1075,613)" d="m0 0h14l3 9 2 8v8l-6 7-5 1-4-2 2-7-1-7-3-5-3-8z" fill="#030271"/>
<path transform="translate(1630,564)" d="m0 0 10 1 5 6 1 9-3 6-7 2-3-3-5-17z" fill="#F5F4F5"/>
<path transform="translate(561,545)" d="m0 0h13l-1 4-9 15-5 2-7-1-1-2 6-16z" fill="#040474"/>
<path transform="translate(1455,545)" d="m0 0h13l-1 5-9 14-4 2h-7l-1-1 1-7 4-10z" fill="#030373"/>
<path transform="translate(838,551)" d="m0 0h10l3 3 1 4v8l-2 1-10-2-3-5-1-7z" fill="#030373"/>
<path transform="translate(1342,551)" d="m0 0h10l3 5 2 8-5 2h-8l-2-2-2-11z" fill="#040475"/>
<path transform="translate(1018,603)" d="m0 0 5 1 2 5v7l-3 3-6-1-2-2v-10z" fill="#F2F2F2"/>
<path transform="translate(602,604)" d="m0 0h6l2 3 1 8-3 3h-6l-3-2-1-9z" fill="#F3F2F2"/>
<path transform="translate(1496,604)" d="m0 0h6l2 2 1 9-3 4-6-1-3-4v-7z" fill="#F2F2F2"/>
<path transform="translate(676,579)" d="m0 0 3 3 6 10 1 4-1 1h-10l-1-1v-10z" fill="#eee"/>
<path transform="translate(1811,581)" d="m0 0 6 2 3 4v5l-7 1-6-2v-7z" fill="#F3F2F2"/>
<path transform="translate(884,581)" d="m0 0 5 2 4 5-1 4h-11l-2-2v-5z" fill="#F2F2F2"/>
<path transform="translate(1386,582)" d="m0 0 7 1 4 4-1 5h-11l-2-3 1-5z" fill="#F3F2F2"/>
<path transform="translate(1263,582)" d="m0 0h7l4 5-1 5h-11l-1-1v-6z" fill="#F6F5F6"/>
</svg>
